<svg xmlns="http://www.w3.org/2000/svg" width="195.652" height="52.738" viewBox="0 0 195.652 52.738">
  <defs>
    <style>
      .cls-1 {
        fill: #1d1d1b;
      }
    </style>
  </defs>
  <g id="Group_1" data-name="Group 1" transform="translate(-64.576 -69.586)">
    <path id="Path_1" data-name="Path 1" class="cls-1" d="M233.058,84.749l7.474,17.387h-14.95Zm-3.327-15.163-22.588,52.738h9.84l5.065-11.874h22.089l5.046,11.874h9.857l-22.6-52.738Z" transform="translate(-100.988 0)"/>
    <path id="Path_2" data-name="Path 2" class="cls-1" d="M442.374,69.586l-15,37.35L412.44,69.586h-9.693l21.327,52.738h6.665l21.324-52.738Z" transform="translate(-239.544)"/>
    <path id="Path_3" data-name="Path 3" class="cls-1" d="M625.493,69.586v52.738h32.061v-8.313h-22.6V98.19h16.467V89.878H634.958V77.9h21.828V69.586Z" transform="translate(-397.326)"/>
    <path id="Path_4" data-name="Path 4" class="cls-1" d="M84.291,69.586H64.576v52.738h9.465V77.916H83.82c3.273,0,5.314.68,6.822,2.27a7.092,7.092,0,0,1,1.892,4.907,6.825,6.825,0,0,1-1.892,4.819c-1.476,1.591-3.516,2.271-6.822,2.271h-2.1V100.5h2.567c6.392,0,10.592-1.415,13.621-4.585a16.338,16.338,0,0,0,0-21.613c-3.1-3.258-7.3-4.711-13.623-4.711" transform="translate(0 0)"/>
  </g>
</svg>
