<?xml version="1.0" encoding="utf-8"?>
<!-- Generator: Adobe Illustrator 25.2.0, SVG Export Plug-In . SVG Version: 6.00 Build 0)  -->
<svg version="1.1" id="Layer_1" xmlns="http://www.w3.org/2000/svg" xmlns:xlink="http://www.w3.org/1999/xlink" x="0px" y="0px"
	 viewBox="0 0 96.58 85.33" style="enable-background:new 0 0 96.58 85.33;" xml:space="preserve">
<style type="text/css">
	.st0{fill:#1D1D1B;}
</style>
<g>
	<g>
		<path d="M17.31,53.18h-3.46L13,55.29h-1.22l3.4-8.21H16l3.4,8.21h-1.22L17.31,53.18z M14.32,52.07h2.53l-1.27-3.05L14.32,52.07z"
			/>
		<path d="M20.46,46.96h1.11v8.33h-1.11V46.96z"/>
		<path d="M24.12,47.08c0.41,0,0.74,0.33,0.74,0.74s-0.33,0.73-0.74,0.73s-0.73-0.32-0.73-0.73S23.71,47.08,24.12,47.08z
			 M23.57,49.78h1.11v5.52h-1.11V49.78z"/>
		<path d="M26.73,53.83c0.52,0.4,1.08,0.61,1.63,0.61c0.48,0,0.96-0.26,0.96-0.69c0-0.63-0.92-0.67-1.73-0.94
			c-0.67-0.22-1.27-0.65-1.27-1.42c0-1.19,1.06-1.73,2.04-1.73c0.81,0,1.4,0.26,1.83,0.61l-0.57,0.8c-0.34-0.26-0.74-0.43-1.19-0.43
			c-0.54,0-1,0.26-1,0.69c0,0.38,0.43,0.5,0.99,0.65c0.87,0.22,2.01,0.61,2.01,1.75c0,1.04-0.97,1.69-2.05,1.69
			c-0.88,0-1.62-0.27-2.23-0.76L26.73,53.83z"/>
		<path d="M34.41,49.66c1.63,0,2.85,1.23,2.85,2.88c0,1.64-1.22,2.87-2.85,2.87s-2.85-1.23-2.85-2.87
			C31.56,50.89,32.78,49.66,34.41,49.66z M34.41,54.35c1.02,0,1.74-0.81,1.74-1.82c0-1.01-0.72-1.82-1.74-1.82s-1.74,0.81-1.74,1.82
			C32.67,53.54,33.39,54.35,34.41,54.35z"/>
		<path d="M39.87,50.31c0.29-0.28,0.86-0.65,1.65-0.65c0.81,0,1.54,0.38,2.01,0.97c0.35,0.45,0.54,1.01,0.54,1.96v2.7h-1.11v-2.76
			c0-0.7-0.13-1.03-0.33-1.28c-0.26-0.33-0.68-0.54-1.14-0.54c-0.73,0-1.26,0.39-1.58,0.79v3.79h-1.11v-5.52h1.08V50.31z"/>
		<path d="M51.3,55.29h-0.82l-2.58-8.21h1.2l1.84,5.95l2.01-5.95h0.82l2.01,5.95l1.84-5.95h1.2l-2.58,8.21h-0.82l-2.05-6.08
			L51.3,55.29z"/>
		<path d="M61.85,49.66c1.63,0,2.85,1.23,2.85,2.88c0,1.64-1.22,2.87-2.85,2.87S59,54.18,59,52.54C59,50.89,60.22,49.66,61.85,49.66
			z M61.85,54.35c1.02,0,1.74-0.81,1.74-1.82c0-1.01-0.72-1.82-1.74-1.82s-1.74,0.81-1.74,1.82C60.12,53.54,60.83,54.35,61.85,54.35
			z"/>
		<path d="M67.31,50.31c0.29-0.28,0.86-0.65,1.65-0.65c0.81,0,1.54,0.38,2.01,0.97c0.35,0.45,0.54,1.01,0.54,1.96v2.7H70.4v-2.76
			c0-0.7-0.13-1.03-0.33-1.28c-0.26-0.33-0.68-0.54-1.14-0.54c-0.73,0-1.26,0.39-1.58,0.79v3.79h-1.11v-5.52h1.08V50.31z"/>
		<path d="M75.72,55.41c-0.49,0-1.01-0.14-1.38-0.36c-0.83-0.49-1.41-1.41-1.41-2.51s0.59-2.03,1.42-2.52
			c0.38-0.22,0.83-0.35,1.35-0.35c0.62,0,1.22,0.19,1.72,0.62v-0.5h1.08v5.28c0,0.82-0.11,1.37-0.33,1.81
			c-0.45,0.86-1.29,1.36-2.38,1.36c-1.43,0-2.33-0.73-2.69-1.28l0.82-0.76c0.4,0.53,0.92,0.99,1.82,0.99c0.6,0,1.07-0.22,1.34-0.63
			c0.2-0.3,0.31-0.73,0.31-1.42v-0.31C76.94,55.2,76.38,55.41,75.72,55.41z M77.38,51.5c-0.34-0.45-0.9-0.79-1.57-0.79
			c-1.07,0-1.77,0.86-1.77,1.82c0,0.99,0.76,1.82,1.83,1.82c0.56,0,1.14-0.28,1.51-0.79V51.5z"/>
	</g>
	<g>
		<path d="M13.83,73.72h-1.11v-8.33h1.08v0.5c0.5-0.43,1.1-0.62,1.72-0.62c0.52,0,0.97,0.13,1.35,0.35
			c0.83,0.49,1.42,1.42,1.42,2.52s-0.58,2.02-1.41,2.51c-0.38,0.22-0.89,0.36-1.38,0.36c-0.66,0-1.22-0.21-1.67-0.6V73.72z
			 M13.83,69.18c0.38,0.5,0.95,0.79,1.51,0.79c1.07,0,1.83-0.83,1.83-1.82c0-0.96-0.7-1.82-1.77-1.82c-0.67,0-1.23,0.34-1.57,0.79
			V69.18z"/>
		<path d="M23.84,70.4c-0.45,0.4-1.04,0.62-1.7,0.62c-0.49,0-1.01-0.14-1.38-0.36c-0.83-0.49-1.41-1.41-1.41-2.51
			s0.59-2.03,1.42-2.52c0.38-0.22,0.83-0.35,1.35-0.35c0.62,0,1.22,0.19,1.72,0.62v-0.5h1.08v5.52h-1.08V70.4z M23.81,67.12
			c-0.34-0.45-0.9-0.79-1.57-0.79c-1.07,0-1.77,0.86-1.77,1.82c0,0.99,0.76,1.82,1.83,1.82c0.56,0,1.14-0.28,1.51-0.79V67.12z"/>
		<path d="M26.04,65.39h1.15l1.63,3.75l1.63-3.75h1.15l-2.39,5.52h-0.77L26.04,65.39z"/>
		<path d="M33.28,68.38c0.06,0.93,0.82,1.67,1.78,1.67c0.82,0,1.27-0.4,1.58-0.75l0.73,0.69c-0.41,0.53-1.2,1.03-2.32,1.03
			c-1.61,0-2.85-1.22-2.85-2.87c0-1.65,1.13-2.88,2.69-2.88c1.54,0,2.65,1.24,2.65,2.88c0,0.05,0,0.13-0.01,0.23H33.28z
			 M33.38,67.45h3c-0.16-0.7-0.8-1.2-1.46-1.2C34.21,66.25,33.56,66.73,33.38,67.45z"/>
		<path d="M42.53,67.45v0.94h-3.52v-0.94H42.53z"/>
		<path d="M48.49,70.4c-0.45,0.4-1.04,0.62-1.7,0.62c-0.49,0-1.01-0.14-1.38-0.36C44.58,70.17,44,69.25,44,68.15
			s0.59-2.03,1.42-2.52c0.38-0.22,0.83-0.35,1.35-0.35c0.62,0,1.22,0.19,1.72,0.62v-0.5h1.08v5.52h-1.08V70.4z M48.46,67.12
			c-0.34-0.45-0.9-0.79-1.57-0.79c-1.07,0-1.77,0.86-1.77,1.82c0,0.99,0.76,1.82,1.83,1.82c0.56,0,1.14-0.28,1.51-0.79V67.12z"/>
		<path d="M51.96,70.1c-0.34-0.42-0.5-0.96-0.5-1.89v-2.82h1.11v2.99c0,0.56,0.12,0.87,0.32,1.1c0.25,0.29,0.65,0.48,1.07,0.48
			c0.68,0,1.23-0.41,1.55-0.79v-3.79h1.11v5.52h-1.08v-0.5c-0.25,0.23-0.86,0.62-1.62,0.62C53.13,71.02,52.42,70.67,51.96,70.1z"/>
		<path d="M59.73,69.38c0.46,0,0.82,0.36,0.82,0.82s-0.36,0.82-0.82,0.82c-0.46,0-0.82-0.36-0.82-0.82S59.27,69.38,59.73,69.38z"/>
		<path d="M67.54,69.73c-0.46,0.76-1.44,1.29-2.45,1.29c-1.7,0-2.95-1.24-2.95-2.87c0-1.63,1.22-2.88,2.87-2.88
			c0.96,0,1.83,0.48,2.35,1.2l-0.82,0.69c-0.31-0.42-0.82-0.83-1.53-0.83c-1,0-1.76,0.77-1.76,1.82c0,1.08,0.77,1.82,1.83,1.82
			c0.73,0,1.24-0.39,1.6-0.86L67.54,69.73z"/>
		<path d="M71.21,65.27c1.63,0,2.85,1.23,2.85,2.88c0,1.64-1.22,2.87-2.85,2.87s-2.85-1.23-2.85-2.87
			C68.36,66.51,69.58,65.27,71.21,65.27z M71.21,69.97c1.02,0,1.74-0.81,1.74-1.82c0-1.01-0.72-1.82-1.74-1.82s-1.74,0.81-1.74,1.82
			C69.47,69.16,70.19,69.97,71.21,69.97z"/>
		<path d="M76.67,65.39v0.53c0.22-0.25,0.87-0.65,1.62-0.65c0.81,0,1.49,0.36,1.95,0.92c0.5-0.5,1.1-0.92,2.1-0.92
			c0.79,0,1.5,0.35,1.96,0.93c0.34,0.42,0.5,0.96,0.5,1.89v2.82h-1.11v-2.99c0-0.56-0.12-0.87-0.32-1.1
			c-0.25-0.29-0.62-0.48-1.03-0.48c-0.8,0-1.31,0.41-1.68,0.79c0.06,0.27,0.09,0.59,0.09,0.97v2.82h-1.11v-2.99
			c0-0.56-0.12-0.87-0.32-1.1c-0.25-0.29-0.65-0.48-1.07-0.48c-0.68,0-1.23,0.41-1.55,0.79v3.79h-1.11v-5.52H76.67z"/>
	</g>
	<g>
		<g>
			<path class="st0" d="M36.92,16.72l2.52,5.86h-5.04L36.92,16.72z M35.79,11.61l-7.62,17.79h3.32l1.71-4h7.45l1.7,4h3.32
				l-7.62-17.79H35.79z"/>
		</g>
		<g>
			<polygon class="st0" points="60.78,11.61 55.72,24.2 50.68,11.61 47.42,11.61 54.61,29.39 56.86,29.39 64.05,11.61 			"/>
		</g>
		<g>
			<polygon class="st0" points="69.32,11.61 69.32,29.39 80.14,29.39 80.14,26.59 72.52,26.59 72.52,21.25 78.07,21.25 78.07,18.45 
				72.52,18.45 72.52,14.41 79.88,14.41 79.88,11.61 			"/>
		</g>
		<g>
			<path class="st0" d="M20.8,11.61h-6.65v17.79h3.19V14.42h3.3c1.1,0,1.79,0.23,2.3,0.77c0.42,0.45,0.64,1.02,0.64,1.65
				c0,0.63-0.21,1.17-0.64,1.63c-0.5,0.54-1.19,0.77-2.3,0.77h-0.71v2.8h0.87c2.16,0,3.57-0.48,4.59-1.55
				c0.86-0.89,1.38-2.26,1.38-3.65c0-1.39-0.52-2.75-1.38-3.64C24.35,12.1,22.94,11.61,20.8,11.61"/>
		</g>
	</g>
</g>
</svg>
